<?xml version="1.0" encoding="utf-8"?>
<!-- Generator: Adobe Illustrator 16.0.0, SVG Export Plug-In . SVG Version: 6.00 Build 0)  -->
<!DOCTYPE svg PUBLIC "-//W3C//DTD SVG 1.1//EN" "http://www.w3.org/Graphics/SVG/1.1/DTD/svg11.dtd">
<svg version="1.1" id="Layer_1" xmlns="http://www.w3.org/2000/svg" xmlns:xlink="http://www.w3.org/1999/xlink" x="0px" y="0px"
	 width="20px" height="20px" viewBox="0 0 20 20" enable-background="new 0 0 20 20" xml:space="preserve">
<g id="XMLID_1_">
	<g>
		<path fill="#0D6EFD" d="M10.1,16.38L10,16.47l-0.1-0.09C5.14,12.06,2,9.21,2,6.32c0-2,1.5-3.5,3.5-3.5c1.54,0,3.04,0.99,3.57,2.37
			h1.871c0.52-1.38,2.02-2.37,3.56-2.37c2,0,3.5,1.5,3.5,3.5C18,9.21,14.86,12.06,10.1,16.38z"/>
		<path fill="#0D6EFD" d="M10.1,16.38C14.86,12.06,18,9.21,18,6.32c0-2-1.5-3.5-3.5-3.5c-1.54,0-3.04,0.99-3.56,2.37H9.07
			C8.54,3.81,7.04,2.82,5.5,2.82c-2,0-3.5,1.5-3.5,3.5c0,2.89,3.14,5.74,7.9,10.06l0.1,0.09L10.1,16.38z M20,6.32
			c0,3.78-3.4,6.871-8.55,11.541L10,19.17l-1.45-1.3C3.4,13.19,0,10.1,0,6.32c0-3.07,2.42-5.5,5.5-5.5c1.74,0,3.41,0.81,4.5,2.1
			c1.09-1.29,2.76-2.1,4.5-2.1C17.58,0.82,20,3.25,20,6.32z"/>
	</g>
	<g>
	</g>
</g>
</svg>
